<svg id="Layer_2" data-name="Layer 2" xmlns="http://www.w3.org/2000/svg" viewBox="0 0 21.5 24"><defs><style>.cls-1{fill:#3b3c46;}</style></defs><title>logo</title><path class="cls-1" d="M22,5H4.5a1.75,1.75,0,0,1,0-3.5H22a.74.74,0,0,0,.75-.75A.74.74,0,0,0,22,0H4.5A3.24,3.24,0,0,0,1.25,3.25v17.5A3.24,3.24,0,0,0,4.5,24H22a.74.74,0,0,0,.75-.75V5.75A.74.74,0,0,0,22,5ZM11.78,13.3l1.55.37a2.55,2.55,0,0,1-.2,5V19a.75.75,0,0,1-1.5,0v-.33A2.47,2.47,0,0,1,9.5,16.22a.75.75,0,0,1,1.5,0,.94.94,0,0,0,.95,1h.75a1,1,0,0,0,1.05-1,1,1,0,0,0-.78-1l-1.55-.38a2.55,2.55,0,0,1,.21-5V9.42a.75.75,0,0,1,1.5,0v.33a2.43,2.43,0,0,1,2.12,2.42.75.75,0,1,1-1.5,0,1,1,0,0,0-.95-.95h-.75a1.06,1.06,0,0,0-1.05,1A1.08,1.08,0,0,0,11.78,13.3Z" transform="translate(-1.25)"/></svg>